<svg width="215" height="341" viewBox="0 0 215 341" fill="none" xmlns="http://www.w3.org/2000/svg">
<path d="M0 108.151C0 48.7808 48.1294 0.651367 107.5 0.651367C166.871 0.651367 215 48.7808 215 108.151V331.406C215 336.512 210.861 340.651 205.755 340.651H9.24529C4.13926 340.651 0 336.512 0 331.406V108.151Z" fill="white"/>
<path d="M29.7637 303.982C29.3781 303.982 29.0008 303.772 28.808 303.411L19.3601 285.762C19.0751 285.233 19.2763 284.579 19.8044 284.294C20.3326 284.009 20.9865 284.21 21.2715 284.739L30.7194 302.389C31.0044 302.917 30.8032 303.571 30.2751 303.856C30.1158 303.94 29.9398 303.982 29.7637 303.982Z" fill="#FFB800"/>
<path d="M34.7013 298.138C34.6007 298.138 34.4918 298.121 34.3912 298.087L15.2355 292.294C14.6654 292.117 14.3385 291.514 14.5145 290.944C14.6906 290.373 15.2941 290.046 15.8642 290.223L35.0199 296.016C35.59 296.192 35.9169 296.796 35.7409 297.366C35.5983 297.836 35.1708 298.138 34.7097 298.138H34.7013Z" fill="#FFB800"/>
<path d="M22.2185 304.82C22.1179 304.82 22.0089 304.804 21.9083 304.77C21.3383 304.594 21.0113 303.99 21.1874 303.42L26.9802 284.261C27.1562 283.691 27.7598 283.364 28.3299 283.54C28.8999 283.716 29.2269 284.32 29.0508 284.89L23.258 304.049C23.1155 304.519 22.688 304.82 22.2269 304.82H22.2185Z" fill="#FFB800"/>
<path d="M16.2162 299.89C15.8306 299.89 15.4533 299.68 15.2605 299.32C14.9755 298.791 15.1767 298.137 15.7048 297.852L33.3515 288.394C33.8797 288.109 34.5336 288.31 34.8186 288.839C35.1036 289.367 34.9024 290.021 34.3743 290.306L16.7276 299.764C16.5683 299.848 16.3922 299.89 16.2162 299.89Z" fill="#FFB800"/>
<path d="M41.2455 117.813C40.6503 116.312 41.4216 114.736 43.1736 113.99C44.9257 113.244 46.594 113.755 47.2814 115.222C48.6982 118.274 49.6623 121.192 50.5593 124.202C51.012 125.611 50.6012 126.869 49 127.556C47.3988 128.244 46.2084 127.674 45.479 126.391C43.9198 123.666 42.4611 120.958 41.2455 117.822V117.813ZM49.4359 128.571C51.2383 127.8 52.8898 128.479 53.6946 130.348C54.3401 131.858 53.5856 133.526 51.8754 134.256C50.1653 134.985 48.4383 134.39 47.7928 132.881C46.988 131.019 47.6838 129.326 49.4359 128.571Z" fill="black"/>
<path d="M25.8121 135.145C24.6636 134.013 24.7307 132.26 26.0301 130.86C27.3295 129.46 29.0648 129.258 30.2804 130.323C32.8037 132.537 34.8744 134.826 36.9115 137.207C37.8923 138.314 38.0265 139.63 36.8444 140.905C35.6624 142.179 34.3462 142.146 33.1474 141.265C30.6157 139.412 28.1929 137.517 25.8121 135.136V135.145ZM37.6576 141.668C38.9905 140.234 40.7845 140.184 42.2684 141.567C43.4756 142.682 43.4504 144.519 42.1845 145.877C40.9187 147.235 39.0995 147.395 37.8923 146.271C36.4085 144.888 36.3582 143.06 37.6576 141.659V141.668Z" fill="black"/>
<path d="M106.284 140.191L126.166 118.651L132.64 152.479L162.827 141.291L150.21 175.607L184 180.512L163.05 203.077L184 225.791L155.617 236.326L162.827 265.012L131.964 257.288L126.166 287.651L104.257 264.523L83.8342 287.651L74.5218 257.288L47.1658 265.012L55.5997 231.266L26 225.791L49.5175 203.077L26 180.512L51.5449 169.107L47.1658 141.291L75.8734 146.698L83.8342 118.651L106.284 140.191Z" fill="#FFBE4A"/>
<path d="M60.7039 267.558C82.6317 267.558 100.408 249.779 100.408 227.847C100.408 205.915 82.6317 188.136 60.7039 188.136C38.776 188.136 21 205.915 21 227.847C21 249.779 38.776 267.558 60.7039 267.558Z" fill="black"/>
<path d="M72.9041 231.702C73.6899 230.052 73.2982 228.225 72.0292 227.62C70.7602 227.015 69.0944 227.862 68.3086 229.511C67.5228 231.161 67.9145 232.988 69.1835 233.593C70.4525 234.198 72.1182 233.351 72.9041 231.702Z" fill="white"/>
<path d="M54.9832 223.155C55.769 221.505 55.3773 219.678 54.1083 219.073C52.8393 218.468 51.1735 219.315 50.3877 220.964C49.6019 222.614 49.9936 224.441 51.2626 225.046C52.5316 225.651 54.1974 224.804 54.9832 223.155Z" fill="white"/>
<path d="M51.6727 209.955C52.2263 211.932 53.5637 213.68 55.1024 215.003C56.6411 216.319 58.5968 217.405 60.6531 217.563C62.7095 217.721 64.6868 216.83 65.866 215.068C66.585 213.996 67.3903 212.522 66.5778 211.292C66.017 210.444 65.0032 210.314 64.126 210.703C63.1553 211.12 62.3428 211.932 61.7245 212.774C61.1565 213.55 60.574 214.521 60.61 215.521C60.6603 217.009 62.0696 218.232 63.3207 218.815C64.6437 219.426 66.1895 219.584 67.6204 219.347C69.0512 219.109 70.5036 218.477 71.5246 217.376C72.2005 216.65 72.7829 215.399 71.7547 214.687C70.971 214.14 69.8493 214.428 69.0872 214.866C68.0014 215.492 67.4406 216.621 67.4478 217.851C67.4694 220.339 69.5258 221.734 71.8338 221.864C74.1418 221.993 76.7518 221.216 78.4775 219.613C78.8585 219.253 79.1749 218.85 79.4266 218.39C79.8939 217.527 78.5134 216.873 78.046 217.736C77.2695 219.16 75.3785 219.908 73.8758 220.202C72.4881 220.476 70.4748 220.569 69.4682 219.347C68.4616 218.124 68.9362 216.146 70.5611 215.938C70.7049 215.916 70.7193 215.931 70.8415 215.938C71.0069 215.952 70.9134 216.003 70.8919 215.938C70.8919 215.945 70.784 215.744 70.7984 215.751C70.7049 215.701 70.8919 215.715 70.7984 215.773C70.7984 215.773 70.5899 216.125 70.5324 216.19C69.8349 217.038 68.778 217.549 67.721 217.779C66.6641 218.009 65.4705 217.98 64.428 217.621C63.8959 217.434 63.3998 217.16 62.9684 216.794C62.537 216.427 62.1199 215.844 62.1271 215.435C62.1271 214.931 62.5585 214.205 62.9108 213.73C63.3566 213.133 63.9031 212.515 64.5789 212.17C64.7875 212.062 65.0319 212.011 65.1254 212.011C65.2189 212.011 65.1829 212.011 65.2117 212.04C65.2404 212.069 65.3483 212.184 65.3842 212.306C65.5065 212.745 65.0823 213.407 64.8737 213.781C64.6652 214.154 64.4208 214.492 64.1332 214.809C63.1913 215.83 61.8395 216.211 60.4806 216.017C57.2019 215.542 53.9951 212.623 53.1035 209.451C52.8375 208.502 51.3995 209.02 51.6655 209.962L51.6727 209.955Z" fill="#FF4C3E"/>
<path d="M73.9198 231.889L67.499 228.832C67.1179 228.652 66.9597 228.192 67.1395 227.811C67.3192 227.43 67.7794 227.272 68.1605 227.451L74.5812 230.508C74.9623 230.688 75.1205 231.148 74.9407 231.529C74.761 231.91 74.3008 232.068 73.9198 231.889Z" fill="white"/>
<path d="M56.0018 223.352L49.581 220.296C49.1999 220.116 49.0417 219.656 49.2215 219.275C49.4013 218.894 49.8614 218.736 50.2425 218.915L56.6633 221.972C57.0443 222.152 57.2025 222.612 57.0228 222.993C56.843 223.374 56.3829 223.532 56.0018 223.352Z" fill="white"/>
<path d="M54.8729 239.26C52.2844 238.03 50.7529 236.606 50.717 236.57C50.3071 236.182 50.2928 235.535 50.681 235.132C51.0693 234.722 51.7092 234.708 52.1191 235.096C52.4857 235.441 61.2074 243.453 72.3017 235.643C72.7619 235.319 73.3946 235.427 73.7182 235.887C74.0417 236.347 73.9339 236.98 73.4737 237.304C65.8019 242.705 59 241.223 54.8801 239.26H54.8729Z" fill="#FF4C3E"/>
<path d="M60.1142 231.32C61.099 231.32 61.8974 230.522 61.8974 229.537C61.8974 228.552 61.099 227.753 60.1142 227.753C59.1294 227.753 58.3311 228.552 58.3311 229.537C58.3311 230.522 59.1294 231.32 60.1142 231.32Z" fill="white"/>
<path d="M81.385 185.265C77.198 183.269 72.1862 185.046 70.1909 189.234C68.1956 193.422 69.9724 198.434 74.1594 200.43C78.3464 202.426 83.3581 200.648 85.3534 196.461C87.3487 192.273 85.572 187.26 81.385 185.265Z" fill="black"/>
<path d="M78.6937 255.85C78.5643 255.786 78.4492 255.685 78.3701 255.556C78.1544 255.196 78.2695 254.721 78.6362 254.506C89.7881 247.839 93.3184 235.621 93.3544 235.499C93.4694 235.096 93.8864 234.859 94.2963 234.966C94.7061 235.082 94.9362 235.499 94.8283 235.909C94.6845 236.433 91.0967 248.846 79.4199 255.814C79.1898 255.951 78.9238 255.951 78.7009 255.85H78.6937Z" fill="white"/>
<path d="M85.5096 243.546C85.2292 243.416 85.0494 243.121 85.0782 242.798C85.1142 242.381 85.4809 242.064 85.8979 242.093L93.7351 242.697C94.1521 242.726 94.4685 243.1 94.4397 243.517C94.4038 243.934 94.0371 244.251 93.6201 244.222L85.7828 243.618C85.6894 243.611 85.5959 243.582 85.5096 243.546Z" fill="white"/>
<path d="M81.8573 248.947C81.5769 248.817 81.3971 248.522 81.4259 248.199C81.4618 247.782 81.8285 247.465 82.2455 247.494L90.0828 248.098C90.4998 248.127 90.8162 248.501 90.7874 248.918C90.7514 249.335 90.3848 249.651 89.9677 249.623L82.1305 249.019C82.037 249.011 81.9436 248.983 81.8573 248.947Z" fill="white"/>
<path d="M138.597 95.0431C137.121 89.8563 131.72 86.8485 126.534 88.3251C121.349 89.8016 118.341 95.2033 119.818 100.39C121.294 105.577 126.695 108.585 131.88 107.108C137.066 105.632 140.073 100.23 138.597 95.0431Z" fill="black"/>
<path d="M97.0674 137.819L113.416 131.295C113.521 115.975 119.96 100.914 119.96 100.914C106.613 108.644 98.0633 122.597 97.0674 137.826V137.819Z" fill="black"/>
<path d="M138.805 94.8743C147.473 99.5532 155.357 107.922 159.558 112.846L174.441 106.905C164.979 98.1853 152.067 93.5976 138.805 94.8743Z" fill="black"/>
<path d="M98.7433 153.477C105.722 178.001 131.251 192.22 155.771 185.24C180.29 178.26 194.507 152.726 187.528 128.202C185.116 119.728 180.487 112.475 174.441 106.912L154.375 114.923L117.477 129.668L97.0601 137.82C96.7164 142.954 97.2424 148.244 98.7363 153.477H98.7433Z" fill="#FF4C3E"/>
<path d="M132.57 139.538C133.376 142.365 135.305 144.301 136.876 143.852C138.447 143.403 139.071 140.744 138.265 137.917C138.096 137.321 137.872 136.76 137.612 136.255L132.254 137.784C132.296 138.352 132.408 138.942 132.577 139.538H132.57Z" fill="#1C1C1C"/>
<path d="M145.664 135.813C146.471 138.64 148.4 140.576 149.971 140.127C151.542 139.678 152.166 137.02 151.359 134.193C151.191 133.597 150.967 133.035 150.707 132.53L145.349 134.06C145.391 134.628 145.503 135.217 145.671 135.813H145.664Z" fill="#1C1C1C"/>
<path d="M127.892 148.84C128.384 148.84 128.782 148.441 128.782 147.949C128.782 147.457 128.384 147.058 127.892 147.058C127.4 147.058 127.001 147.457 127.001 147.949C127.001 148.441 127.4 148.84 127.892 148.84Z" fill="white"/>
<path d="M123.333 150.13C123.825 150.13 124.224 149.732 124.224 149.24C124.224 148.747 123.825 148.349 123.333 148.349C122.841 148.349 122.442 148.747 122.442 149.24C122.442 149.732 122.841 150.13 123.333 150.13Z" fill="white"/>
<path d="M126.258 151.765C126.75 151.765 127.149 151.366 127.149 150.874C127.149 150.382 126.75 149.983 126.258 149.983C125.766 149.983 125.367 150.382 125.367 150.874C125.367 151.366 125.766 151.765 126.258 151.765Z" fill="white"/>
<path d="M164.314 138.465C164.806 138.465 165.204 138.066 165.204 137.574C165.204 137.082 164.806 136.683 164.314 136.683C163.822 136.683 163.423 137.082 163.423 137.574C163.423 138.066 163.822 138.465 164.314 138.465Z" fill="white"/>
<path d="M159.762 139.763C160.254 139.763 160.653 139.364 160.653 138.872C160.653 138.38 160.254 137.981 159.762 137.981C159.27 137.981 158.871 138.38 158.871 138.872C158.871 139.364 159.27 139.763 159.762 139.763Z" fill="white"/>
<path d="M162.687 141.39C163.179 141.39 163.577 140.991 163.577 140.499C163.577 140.007 163.179 139.608 162.687 139.608C162.195 139.608 161.796 140.007 161.796 140.499C161.796 140.991 162.195 141.39 162.687 141.39Z" fill="white"/>
<path d="M122.085 141.6L160.786 130.58C161.256 130.447 161.529 129.956 161.396 129.486C161.263 129.016 160.772 128.742 160.302 128.876L121.601 139.896C121.131 140.029 120.858 140.52 120.991 140.99C121.124 141.46 121.615 141.734 122.085 141.6Z" fill="#191919"/>
<path d="M140.256 161.179C140.656 161.067 140.979 160.744 141.084 160.316C144.766 144.982 158.527 145.269 159.109 145.29C159.761 145.311 160.308 144.806 160.336 144.154C160.357 143.501 159.852 142.954 159.2 142.926C159.039 142.926 142.922 142.512 138.784 159.762C138.629 160.4 139.022 161.039 139.66 161.186C139.864 161.235 140.067 161.228 140.256 161.172V161.179Z" fill="#1C1C1C"/>
<path d="M143.942 144.907C145.514 144.46 146.607 143.459 146.384 142.673C146.16 141.887 144.704 141.612 143.132 142.06C141.56 142.508 140.467 143.508 140.69 144.294C140.914 145.08 142.37 145.355 143.942 144.907Z" fill="white"/>
<path d="M119.96 100.907C123.2 99.0273 126.728 97.5121 130.501 96.4388C132.97 95.7373 135.446 95.2463 137.915 94.9657C138.209 94.9306 138.511 94.9026 138.805 94.8745C147.474 99.5534 155.357 107.922 159.559 112.847L154.376 114.916L117.477 129.661L113.409 131.289C113.514 115.968 119.953 100.907 119.953 100.907H119.96Z" fill="white"/>
<path d="M95.5033 139.012C95.5454 138.998 95.5804 138.991 95.6225 138.97L186.378 102.717C186.988 102.472 187.283 101.784 187.038 101.181C186.799 100.571 186.105 100.276 185.502 100.522L94.7458 136.774C94.1356 137.02 93.8411 137.707 94.0865 138.311C94.311 138.879 94.9352 139.173 95.5103 139.012H95.5033Z" fill="black"/>
<path d="M159.878 216.437C160.305 213.611 160.993 211.222 162.468 208.941C163.701 207.038 165.629 205.445 167.834 204.749C169.292 204.288 170.91 204.019 172.444 204.137C173.09 204.187 173.66 204.397 174.155 204.615C174.255 204.656 174.356 204.732 174.448 204.799C174.096 204.573 174.373 204.732 174.456 204.807C174.641 204.983 174.959 205.487 174.725 205.059C174.825 205.243 175.035 205.864 174.892 205.31C174.917 205.411 175.102 206.073 175.018 205.696C174.951 205.352 175.018 205.956 175.018 206.09C175.018 206.208 175.001 206.333 174.993 206.451C174.993 206.266 175.102 206.023 174.993 206.325C174.917 206.551 174.859 206.795 174.783 207.021C174.926 206.568 174.834 206.895 174.691 207.147C174.557 207.373 174.297 207.625 174.632 207.281C174.473 207.44 174.314 207.608 174.146 207.759C174.607 207.314 174.146 207.708 173.962 207.817C174.381 207.549 174.196 207.826 173.878 207.801C173.618 207.784 174.129 207.767 174.146 207.767C174.171 207.767 173.819 207.784 173.811 207.767C173.844 207.918 174.44 207.692 173.97 207.776C173.886 207.792 173.702 207.692 173.626 207.667C174.196 207.868 173.492 207.532 173.35 207.432C173.719 207.7 173.291 207.356 173.165 207.239C173.006 207.088 172.855 206.92 172.696 206.761C172.612 206.669 172.537 206.568 172.453 206.476C172.57 206.618 172.662 206.786 172.511 206.535C172.268 206.141 172.034 205.755 171.816 205.344C171.556 204.833 171.866 205.604 171.749 205.185C171.682 204.95 171.589 204.715 171.522 204.48C171.455 204.246 171.405 204.002 171.355 203.759C171.338 203.667 171.321 203.575 171.304 203.483C171.229 203.13 171.346 203.952 171.313 203.592C171.262 203.114 171.229 202.644 171.237 202.158C171.246 201.671 171.279 201.185 171.321 200.69C171.346 200.397 171.296 200.85 171.296 200.867C171.313 200.732 171.338 200.607 171.355 200.472C171.405 200.213 171.447 199.944 171.505 199.684C171.723 198.686 172.042 197.722 172.419 196.766C172.201 197.32 172.528 196.54 172.579 196.431C172.679 196.213 172.788 196.003 172.897 195.785C173.132 195.333 173.375 194.888 173.643 194.461C173.911 194.033 174.188 193.622 174.481 193.22C174.808 192.75 174.339 193.354 174.624 193.027C174.792 192.834 174.951 192.633 175.127 192.44C175.479 192.046 175.848 191.668 176.242 191.316C176.443 191.132 176.653 190.964 176.862 190.796C176.435 191.14 176.854 190.813 177.055 190.679C177.449 190.411 177.86 190.201 178.287 189.983C178.531 189.857 178.044 190.075 178.053 190.075C178.179 190.033 178.296 189.975 178.422 189.941C178.64 189.874 178.866 189.799 179.092 189.748C179.428 189.673 179.696 189.706 179.168 189.715C179.369 189.715 179.562 189.69 179.763 189.69C179.855 189.69 179.964 189.706 180.056 189.698C180.484 189.673 179.646 189.572 179.905 189.673C180.082 189.74 180.299 189.765 180.492 189.807C180.593 189.832 180.685 189.874 180.786 189.899C181.046 189.975 180.266 189.589 180.685 189.857C180.861 189.975 181.062 190.067 181.247 190.176C181.347 190.235 181.431 190.302 181.523 190.36C181.389 190.277 181.196 190.067 181.423 190.285C181.649 190.503 181.876 190.696 182.093 190.922C184.323 193.278 187.878 189.715 185.648 187.367C183.955 185.581 181.59 184.441 179.092 184.684C176.594 184.927 174.331 186.227 172.486 187.946C168.747 191.45 166.316 196.833 166.224 201.965C166.182 204.531 166.819 207.214 168.353 209.302C170.248 211.884 173.358 213.838 176.535 212.169C179.176 210.777 180.459 207.549 179.931 204.69C179.201 200.707 175.043 198.963 171.371 199.106C167.012 199.273 162.737 200.883 159.811 204.204C157.128 207.247 155.636 211.129 155.041 215.104C154.84 216.445 155.376 217.804 156.801 218.198C157.992 218.525 159.693 217.795 159.895 216.437H159.878Z" fill="black"/>
<path d="M155.922 333.144C178.456 333.144 196.723 314.873 196.723 292.335C196.723 269.797 178.456 251.527 155.922 251.527C133.388 251.527 115.121 269.797 115.121 292.335C115.121 314.873 133.388 333.144 155.922 333.144Z" fill="#FF4C3E"/>
<path d="M166.829 282.181C166.745 282.215 166.653 282.232 166.561 282.232L159.251 282.374C158.815 282.374 158.462 282.039 158.454 281.603C158.454 281.167 158.789 280.815 159.225 280.806L166.536 280.664C166.971 280.664 167.324 280.999 167.332 281.435C167.332 281.77 167.131 282.064 166.829 282.181Z" fill="#191919"/>
<path d="M147.547 288.269L140.723 290.893C140.321 291.053 139.868 290.851 139.709 290.441C139.55 290.03 139.751 289.585 140.162 289.426L146.985 286.802C147.388 286.642 147.841 286.844 148 287.254C148.159 287.665 147.958 288.11 147.547 288.269Z" fill="#191919"/>
<path d="M156.76 295.798C157.769 295.798 158.588 294.98 158.588 293.97C158.588 292.961 157.769 292.143 156.76 292.143C155.751 292.143 154.933 292.961 154.933 293.97C154.933 294.98 155.751 295.798 156.76 295.798Z" fill="white"/>
<path d="M160.902 304.434C158.982 305.172 157.112 304.787 156.635 303.554C156.157 302.322 157.289 300.779 159.208 300.041C161.128 299.303 162.998 299.689 163.475 300.921C163.953 302.154 162.821 303.697 160.902 304.434ZM159.586 301.013C158.144 301.567 157.389 302.598 157.615 303.177C157.842 303.755 159.091 304.015 160.524 303.453C161.958 302.892 162.721 301.869 162.495 301.29C162.268 300.712 161.019 300.452 159.586 301.013Z" fill="#1C1C1C"/>
<path d="M131.846 229.106L134.067 224.595C134.218 224.293 134.654 224.335 134.746 224.654L136.205 229.467C136.264 229.651 136.448 229.76 136.633 229.718L141.545 228.636C141.872 228.561 142.115 228.93 141.922 229.207L139.072 233.349C138.963 233.508 138.997 233.718 139.139 233.843L143.046 237.013C143.306 237.222 143.171 237.642 142.836 237.667L137.815 238.019C137.622 238.036 137.471 238.187 137.471 238.38L137.429 243.41C137.429 243.746 137.018 243.905 136.792 243.654L133.388 239.947C133.262 239.805 133.045 239.788 132.894 239.906L128.937 243.008C128.677 243.218 128.3 242.991 128.35 242.664L129.121 237.692C129.155 237.499 129.029 237.323 128.844 237.281L123.949 236.116C123.622 236.04 123.563 235.604 123.848 235.436L128.216 232.938C128.383 232.846 128.45 232.636 128.367 232.46L126.221 227.907C126.078 227.605 126.38 227.286 126.69 227.412L131.368 229.274C131.544 229.341 131.745 229.274 131.829 229.098L131.846 229.106Z" fill="#FF4C3E"/>
<path d="M149.936 251.74C148.223 247.291 143.229 245.073 138.781 246.786C134.332 248.499 132.115 253.495 133.828 257.944C135.541 262.393 140.535 264.61 144.983 262.897C149.431 261.184 151.649 256.189 149.936 251.74Z" fill="#FF4C3E"/>
<path d="M173.334 297.333C166.887 299.814 159.628 296.586 157.146 290.147C154.665 283.707 157.892 276.438 164.331 273.956C170.777 271.474 178.037 274.702 180.519 281.142C183 287.581 179.773 294.851 173.334 297.333ZM164.708 274.929C158.798 277.201 155.847 283.858 158.119 289.77C160.39 295.681 167.047 298.632 172.957 296.36C178.867 294.088 181.818 287.43 179.546 281.519C177.274 275.608 170.618 272.656 164.708 274.929Z" fill="white"/>
<path d="M146.424 307.696C139.977 310.178 132.717 306.95 130.236 300.511C127.755 294.071 130.982 286.802 137.42 284.32C143.867 281.838 151.127 285.066 153.608 291.505C156.09 297.945 152.862 305.214 146.424 307.696ZM137.806 285.292C131.896 287.565 128.945 294.222 131.217 300.133C133.489 306.045 140.145 308.996 146.055 306.724C151.965 304.451 154.916 297.794 152.644 291.883C150.373 285.971 143.716 283.02 137.806 285.292Z" fill="white"/>
<path d="M166.196 290.052C167.544 289.533 168.089 287.69 167.413 285.935C166.738 284.181 165.098 283.179 163.749 283.699C162.401 284.218 161.856 286.061 162.532 287.815C163.207 289.57 164.848 290.571 166.196 290.052Z" fill="#1C1C1C"/>
<path d="M147.158 297.386C148.507 296.867 149.052 295.024 148.376 293.269C147.701 291.515 146.06 290.513 144.712 291.033C143.364 291.552 142.819 293.395 143.495 295.149C144.17 296.904 145.81 297.905 147.158 297.386Z" fill="#1C1C1C"/>
<path d="M156.634 288.973L153.214 290.289C152.946 290.39 152.644 290.256 152.535 289.987C152.426 289.719 152.568 289.417 152.837 289.308L156.257 287.992C156.525 287.891 156.827 288.025 156.936 288.294C157.045 288.562 156.903 288.864 156.634 288.973Z" fill="white"/>
<path d="M155.302 261.22C155.612 261.22 155.864 260.968 155.864 260.658C155.864 260.348 155.612 260.096 155.302 260.096C154.992 260.096 154.74 260.348 154.74 260.658C154.74 260.968 154.992 261.22 155.302 261.22Z" fill="white"/>
<path d="M158.085 260.147C158.395 260.147 158.647 259.895 158.647 259.585C158.647 259.274 158.395 259.023 158.085 259.023C157.775 259.023 157.523 259.274 157.523 259.585C157.523 259.895 157.775 260.147 158.085 260.147Z" fill="white"/>
<path d="M157.23 262.075C157.54 262.075 157.791 261.824 157.791 261.513C157.791 261.203 157.54 260.952 157.23 260.952C156.919 260.952 156.668 261.203 156.668 261.513C156.668 261.824 156.919 262.075 157.23 262.075Z" fill="white"/>
<path d="M169.159 263.727C169.47 263.727 169.721 263.475 169.721 263.165C169.721 262.855 169.47 262.603 169.159 262.603C168.849 262.603 168.598 262.855 168.598 263.165C168.598 263.475 168.849 263.727 169.159 263.727Z" fill="white"/>
<path d="M171.951 262.653C172.262 262.653 172.513 262.402 172.513 262.092C172.513 261.781 172.262 261.53 171.951 261.53C171.641 261.53 171.39 261.781 171.39 262.092C171.39 262.402 171.641 262.653 171.951 262.653Z" fill="white"/>
<path d="M171.088 264.59C171.398 264.59 171.65 264.339 171.65 264.029C171.65 263.718 171.398 263.467 171.088 263.467C170.778 263.467 170.526 263.718 170.526 264.029C170.526 264.339 170.778 264.59 171.088 264.59Z" fill="white"/>
<path d="M172.924 267.039C172.287 267.282 171.599 267.357 170.92 267.248L155.285 264.791C154.254 264.632 153.349 264.07 152.729 263.223C152.108 262.377 151.857 261.337 152.024 260.306C152.192 259.274 152.745 258.369 153.592 257.748C154.439 257.128 155.478 256.876 156.509 257.044L172.144 259.501C173.175 259.66 174.081 260.222 174.701 261.069C175.321 261.915 175.573 262.955 175.405 263.986C175.238 265.018 174.684 265.923 173.838 266.544C173.552 266.753 173.251 266.921 172.924 267.039ZM154.875 258.226C154.64 258.318 154.414 258.436 154.204 258.595C153.584 259.048 153.173 259.719 153.055 260.473C152.938 261.228 153.123 261.991 153.575 262.611C154.028 263.232 154.699 263.643 155.453 263.76L171.088 266.217C171.842 266.334 172.605 266.15 173.226 265.697C173.846 265.244 174.257 264.573 174.374 263.819C174.491 263.064 174.307 262.301 173.854 261.681C173.402 261.06 172.731 260.649 171.976 260.532L156.342 258.075C155.839 258 155.336 258.05 154.875 258.226Z" fill="white"/>
<path d="M167.614 259.298L160.897 258.241L159.841 264.959L166.557 266.015L167.614 259.298Z" fill="white"/>
<path d="M163.794 291.547C164.833 293.97 166.636 295.496 167.918 295.002C169.201 294.507 169.511 292.168 168.656 289.669L163.794 291.539V291.547Z" fill="#1C1C1C"/>
<path d="M144.756 298.876C145.795 301.299 147.598 302.825 148.88 302.33C150.163 301.836 150.473 299.496 149.618 296.998L144.756 298.867V298.876Z" fill="#1C1C1C"/>
<path d="M95 197.464L103.375 188.651" stroke="black" stroke-width="2.77358" stroke-miterlimit="10" stroke-linecap="round"/>
<path d="M99.6016 200.181L116.879 197.456L108.236 205.773L120.979 210.192L111.346 213.605L118.246 217.47" stroke="black" stroke-width="2.77358" stroke-linecap="round" stroke-linejoin="round"/>
<path d="M80.4399 101.935C79.6512 94.36 70.3485 91.4524 75.3111 82.0907C75.6791 81.396 75.0429 80.6107 74.2993 80.8251C67.222 82.7769 60.8845 88.808 62.017 99.2552C62.1109 100.111 61.0074 100.589 60.4876 99.9071C58.065 96.7811 58.6397 93.3812 59.5489 91.0822C59.8859 90.2348 58.8556 89.5056 58.1726 90.0972C56.5567 91.5379 54.6335 94.0505 53.485 98.306C51.5821 107.898 58.7573 112.938 61.5169 114.08C65.4635 115.704 70.0916 116.141 74.056 114.089C78.4307 111.787 81.1072 106.952 80.4399 101.935ZM62.5472 106.183C65.1283 106.248 66.8451 104.835 67.5991 103.378C68.8033 101.123 67.269 98.1823 69.7583 94.7759C69.4645 98.0711 73.8786 101.374 72.9525 104.805C71.9386 109.097 66.3448 111.503 62.5472 106.183Z" fill="#FF4C3E"/>
</svg>
