<svg width="80" height="81" viewBox="0 0 80 81" fill="none" xmlns="http://www.w3.org/2000/svg">
<path d="M17.1619 31.917C17.1619 31.0403 17.6212 30.2276 18.3723 29.7753L38.0886 17.9031C38.8748 17.4297 39.8571 17.4251 40.6477 17.8911L60.8143 29.7788C61.5768 30.2283 62.0448 31.0474 62.0448 31.9325V58.5627C62.0448 59.9434 60.9255 61.0627 59.5448 61.0627H19.6619C18.2812 61.0627 17.1619 59.9434 17.1619 58.5627V31.917Z" fill="#FF4C3E"/>
<path d="M55.3602 21.9092H23.8467V42.9369L28.9768 46.2605H49.8637L55.3602 42.9369V21.9092Z" fill="white" stroke="#FF4C3E" stroke-width="0.5" stroke-linecap="round"/>
<path d="M32.8242 46.3212L17 31.1348V59.1348H62V31.1348L45.4341 46.3212H32.8242Z" fill="#EC3022"/>
<path d="M37.7952 36.2186C38.7801 35.1868 40.4271 35.1868 41.412 36.2186L61.2069 56.956C62.7256 58.5469 61.5979 61.1822 59.3986 61.1822H19.8086C17.6093 61.1822 16.4817 58.5469 18.0003 56.956L37.7952 36.2186Z" fill="#FF4C3E"/>
</svg>
