<svg width="140" height="141" viewBox="0 0 140 141" fill="none" xmlns="http://www.w3.org/2000/svg">
<path d="M70.0237 140.695C98.2033 140.695 121.047 117.851 121.047 89.6712C121.047 61.4916 98.2033 38.6475 70.0237 38.6475C41.8441 38.6475 19 61.4916 19 89.6712C19 117.851 41.8441 140.695 70.0237 140.695Z" fill="#B6B6B6"/>
<path d="M87.313 82.7219C87.2018 82.7219 87.0906 82.7023 86.9794 82.6631L78.3904 79.5428C77.8801 79.3596 77.6185 78.797 77.8016 78.2868C77.9848 77.7766 78.5474 77.5149 79.0576 77.6981L87.6466 80.8183C88.1568 81.0015 88.4185 81.5641 88.2353 82.0743C88.0914 82.4734 87.712 82.7219 87.313 82.7219Z" fill="#191919"/>
<path d="M62.1738 79.9502L53.3467 82.3155C52.8223 82.456 52.2855 82.1461 52.145 81.6216C52.0044 81.0972 52.3143 80.5604 52.8388 80.4199L61.6659 78.0547C62.1903 77.9141 62.7271 78.224 62.8676 78.7485C63.0081 79.2729 62.6982 79.8097 62.1738 79.9502Z" fill="#191919"/>
<path d="M70.2722 94.248C71.5367 94.248 72.5617 93.2229 72.5617 91.9585C72.5617 90.694 71.5367 89.6689 70.2722 89.6689C69.0078 89.6689 67.9827 90.694 67.9827 91.9585C67.9827 93.2229 69.0078 94.248 70.2722 94.248Z" fill="white"/>
<path d="M67.4527 103.08C67.4527 100.516 68.7479 98.501 70.3964 98.501C72.0448 98.501 73.34 100.516 73.34 103.08C73.34 105.644 72.0448 107.659 70.3964 107.659C68.7479 107.659 67.4527 105.644 67.4527 103.08ZM72.0317 103.08C72.0317 101.15 71.1682 99.8093 70.3964 99.8093C69.6245 99.8093 68.761 101.15 68.761 103.08C68.761 105.01 69.6245 106.351 70.3964 106.351C71.1682 106.351 72.0317 105.01 72.0317 103.08Z" fill="#1C1C1C"/>
<path d="M70.3377 5.08857L74.956 0.816972C75.2635 0.535688 75.7541 0.771182 75.7279 1.18984L75.27 7.46314C75.2504 7.70517 75.4205 7.9145 75.656 7.94721L81.877 8.89573C82.2891 8.96114 82.4134 9.491 82.0667 9.7265L76.8727 13.2785C76.6765 13.4159 76.6176 13.6776 76.7353 13.8869L79.8687 19.3425C80.078 19.7023 79.7313 20.134 79.3388 20.0097L73.3207 18.165C73.0917 18.0931 72.8497 18.2108 72.7581 18.4332L70.4489 24.2879C70.2985 24.6738 69.749 24.6738 69.592 24.2879L67.2829 18.4332C67.1978 18.2108 66.9492 18.0931 66.7203 18.165L60.7021 20.0097C60.3031 20.134 59.9629 19.7023 60.1722 19.3425L63.3056 13.8869C63.4234 13.6776 63.3645 13.4159 63.1683 13.2785L57.9743 9.7265C57.6276 9.491 57.7519 8.9546 58.164 8.89573L64.385 7.94721C64.6205 7.90796 64.7905 7.69863 64.7709 7.46314L64.313 1.18984C64.2803 0.777723 64.7775 0.535688 65.0849 0.816972L69.7032 5.08857C69.8798 5.25211 70.148 5.25211 70.3247 5.08857H70.3377Z" fill="#B6B6B6"/>
<path d="M81.2687 39.6284C81.2687 33.6674 76.4363 28.835 70.4752 28.835C64.5141 28.835 59.6817 33.6674 59.6817 39.6284C59.6817 45.5895 64.5141 50.4219 70.4752 50.4219C76.4363 50.4219 81.2687 45.5895 81.2687 39.6284Z" fill="#B6B6B6"/>
<path d="M83.0282 91.6309C84.8346 91.6309 86.2989 89.7272 86.2989 87.3789C86.2989 85.0306 84.8346 83.127 83.0282 83.127C81.2218 83.127 79.7574 85.0306 79.7574 87.3789C79.7574 89.7272 81.2218 91.6309 83.0282 91.6309Z" fill="#1C1C1C"/>
<path d="M57.5164 91.6309C59.3228 91.6309 60.7872 89.7272 60.7872 87.3789C60.7872 85.0306 59.3228 83.127 57.5164 83.127C55.71 83.127 54.2457 85.0306 54.2457 87.3789C54.2457 89.7272 55.71 91.6309 57.5164 91.6309Z" fill="#1C1C1C"/>
</svg>
