<svg width="24" height="24" viewBox="0 0 24 24" fill="none" xmlns="http://www.w3.org/2000/svg">
<path d="M20.6822 8.2049L20.8725 8.34641C21.1181 8.59613 21.25 8.91601 21.25 9.2411V21.9218C21.25 22.6234 20.6473 23.2466 19.8317 23.2466H15.4319V15.6429C15.4319 13.7783 13.8663 12.3267 12 12.3267C10.1337 12.3267 8.56812 13.7783 8.56812 15.6429V23.2466H4.16833C3.35274 23.2466 2.75 22.6234 2.75 21.9218V9.2411C2.75 8.8502 2.94066 8.46684 3.29058 8.20393C3.29093 8.20366 3.29129 8.20339 3.29164 8.20313L6.94112 5.48864L6.94119 5.48858L11.934 1.77588L11.947 1.76616L11.9597 1.75589L11.9609 1.7551C11.9618 1.7546 11.9634 1.75384 11.9657 1.75306C11.9706 1.75139 11.9775 1.75 11.9857 1.75C11.994 1.75 12.0009 1.75139 12.0058 1.75306C12.0081 1.75384 12.0096 1.7546 12.0105 1.7551L12.0118 1.75589L12.0244 1.76616L12.0375 1.77588L17.0303 5.48858L17.0304 5.48864L20.6822 8.2049Z" stroke="#1F1F1F" stroke-width="1.5"/>
</svg>
