<svg width="13" height="16" viewBox="0 0 13 16" fill="none" xmlns="http://www.w3.org/2000/svg">
<path d="M4.33333 7.09863H2.88889V8.59863H4.33333V7.09863ZM7.22222 7.09863H5.77778V8.59863H7.22222V7.09863ZM10.1111 7.09863H8.66667V8.59863H10.1111V7.09863ZM11.5556 1.84863H10.8333V0.348633H9.38889V1.84863H3.61111V0.348633H2.16667V1.84863H1.44444C0.642778 1.84863 0.00722222 2.52363 0.00722222 3.34863L0 13.8486C0 14.6736 0.642778 15.3486 1.44444 15.3486H11.5556C12.35 15.3486 13 14.6736 13 13.8486V3.34863C13 2.52363 12.35 1.84863 11.5556 1.84863ZM11.5556 13.8486H1.44444V5.59863H11.5556V13.8486Z" fill="#B6B6B6"/>
</svg>
