<svg width="24" height="24" viewBox="0 0 24 24" fill="none" xmlns="http://www.w3.org/2000/svg">
<circle cx="12" cy="12" r="9" fill="#1F1F1F"/>
<path d="M11.1866 13.9881C11.1961 12.6738 11.51 12.2604 12.0809 11.8683C12.49 11.5715 12.8039 11.2429 12.8039 10.7554C12.8039 10.2254 12.4329 9.87567 11.9762 9.87567C11.5291 9.87567 11.12 10.2042 11.101 10.8296H9.75C9.77854 9.33513 10.768 8.625 11.9857 8.625C13.3081 8.625 14.25 9.39872 14.25 10.7024C14.25 11.5715 13.8504 12.1332 13.2225 12.5466C12.6897 12.907 12.4519 13.2461 12.4424 13.9881V14.1046H11.1866V13.9881ZM11.843 16.5C11.3959 16.5 11.0344 16.0972 11.0439 15.6097C11.0344 15.1221 11.3959 14.73 11.843 14.73C12.2616 14.73 12.6327 15.1221 12.6327 15.6097C12.6327 16.0972 12.2616 16.5 11.843 16.5Z" fill="white"/>
</svg>
