<svg width="24" height="24" viewBox="0 0 24 24" fill="none" xmlns="http://www.w3.org/2000/svg">
<path d="M15.2638 22.6321C11.0137 23.7105 6.94994 22.0695 4.99264 18.3843C4.2004 16.884 3.89282 15.1492 4.03263 13.4613C4.17243 11.7641 4.50797 9.86053 5.7476 8.604C6.33479 8.00386 6.4746 9.49482 6.5212 9.8324C6.59576 10.47 6.67965 11.1171 6.81013 11.7453C6.95926 12.4767 7.42529 14.9054 8.64627 14.249C9.12162 13.9958 9.04705 13.5832 8.89793 13.1519C7.7049 9.46669 8.32005 6.11907 10.8086 3.1559C11.0882 2.81832 11.3865 2.51826 11.7127 2.24632C12.2347 1.8056 12.8219 1.20546 13.5023 1.03667C14.2386 0.849133 14.397 1.41176 14.3597 2.02127C14.3038 2.90272 14.164 3.68102 14.3318 4.58122C14.63 6.10031 15.4316 7.2912 16.6153 8.28518C17.6033 9.11036 18.6192 9.94492 19.4301 10.9389C22.7295 14.9898 20.5858 21.2818 15.2638 22.6321Z" stroke="#1F1F1F" stroke-width="1.5" stroke-miterlimit="10"/>
<path d="M16.6547 16.2008C16.4394 17.2026 15.8641 18.1276 15.0367 18.7117C14.2431 19.2723 13.2419 19.5 12.2868 19.3885C11.6869 19.3179 9.95362 18.9206 10.4719 17.9454C10.6319 17.6455 10.9379 17.4649 11.2163 17.2764C11.7377 16.9263 12.2237 16.4866 12.4913 15.9118C12.9681 14.888 12.659 13.6819 12.3744 12.5859C12.2083 11.9436 12.0299 11.2715 12.0361 10.6009C12.0391 10.3151 12.1591 9.85347 12.3498 9.63519C12.9758 8.91912 14.6076 11.2259 14.9875 11.6232C15.7857 12.4571 16.4717 13.4574 16.6854 14.6022C16.7839 15.1298 16.77 15.6763 16.6562 16.2008H16.6547Z" fill="#1F1F1F"/>
</svg>
