<svg width="50" height="50" viewBox="0 0 50 50" fill="none" xmlns="http://www.w3.org/2000/svg">
<path d="M43.1652 18.6679C43.1652 18.6679 43.1652 18.6476 43.1585 18.6341C42.6382 18.857 42.0909 19.0057 41.5301 19.0733C41.0369 19.1138 40.7733 19.0395 40.7733 19.0395C40.3477 18.803 40.4828 18.1611 40.7125 17.7287C41.5706 16.1206 42.9017 14.8301 44.0639 13.4314C45.2192 12.0261 46.253 10.3774 46.3003 8.55988C46.3273 7.38422 45.9422 6.25585 45.5909 5.15452C45.4895 4.84371 45.4084 4.52615 45.3409 4.21534C45.1449 3.33021 45.0368 2.45185 44.8679 1.59375C43.0166 5.91126 39.3004 9.24906 34.5369 9.93824C33.8275 10.0396 32.8951 9.945 32.6991 9.26257C32.6113 8.95852 32.7126 8.62744 32.8343 8.33691C33.2329 7.3707 33.8883 6.50585 34.7059 5.85045C31.1924 4.95857 27.206 6.34369 25.01 9.22879C24.5506 9.83013 23.956 10.5801 23.2195 10.4044C22.2533 10.1747 22.3412 8.78285 22.652 7.84367C22.5844 8.03961 20.7804 8.73555 20.4966 8.91798C19.8074 9.36392 19.1723 9.88419 18.5169 10.3842C15.098 12.9923 10.7062 14.3976 7.83458 17.7017C5.49001 20.3908 3.92247 23.7624 3.4968 27.3029C2.7941 33.1069 5.15894 39.1946 9.58456 43.0054C14.0169 46.8162 20.3885 48.2418 26.0168 46.681C35.5369 44.0392 40.5909 34.1406 43.2058 25.3907C44.3476 21.5732 45.003 17.6814 45.003 17.6814C44.3071 18.1476 43.6922 18.4584 43.1585 18.6746L43.1652 18.6679Z" fill="#1F1F1F"/>
<path d="M36.6382 20.7491C37.2598 20.1005 37.8341 19.364 38.1449 18.5329C38.1449 18.5329 38.1449 18.5194 38.1517 18.5194C39.8273 14.783 38.7463 11.8506 38.7463 11.8506C38.4963 12.1614 38.1517 12.506 37.753 12.8641C37.753 12.8641 37.753 12.8573 37.753 12.8506C37.753 12.8573 37.7463 12.8641 37.7395 12.8776C35.2396 15.1141 30.422 17.9451 30.422 17.9451C29.9423 17.9789 29.3207 17.8708 29.2194 17.3978C29.1721 17.1884 29.2599 16.9721 29.3545 16.783C29.6721 16.1546 30.145 15.6073 30.7261 15.2087C28.4153 14.4384 25.6721 15.1749 24.0573 16.9992C23.7194 17.3843 23.287 17.8573 22.8005 17.7019C22.1654 17.4992 22.287 16.5735 22.5438 15.9586C22.4897 16.087 21.2465 16.4654 21.0438 16.5735C20.5573 16.837 20.1046 17.1546 19.6452 17.4586C17.2263 19.0397 14.2128 19.7694 12.125 21.8437C10.4291 23.5329 9.21962 25.7153 8.75341 28.0734C7.99666 31.9314 9.28718 36.1273 12.0709 38.8975C14.8547 41.6678 19.0573 42.938 22.9086 42.161C29.4221 40.857 33.2936 34.4652 35.4693 28.7288C36.422 26.2288 37.0503 23.6477 37.0503 23.6477C36.5639 23.9248 36.1314 24.1072 35.7666 24.2221C35.7666 24.2153 35.7666 24.2085 35.7666 24.2018C35.4085 24.3234 35.0301 24.3977 34.6517 24.418C34.3206 24.418 34.145 24.3572 34.145 24.3572C33.8747 24.1815 33.9963 23.7558 34.1652 23.4788C34.8206 22.445 35.7733 21.641 36.6179 20.7626L36.6382 20.7491Z" fill="#FF4C3E"/>
<path d="M28.4897 26.2347C28.8275 25.8766 29.1451 25.4712 29.314 25.0185C29.314 25.0185 29.314 25.0185 29.314 25.0117C30.2329 22.9577 29.6383 21.3496 29.6383 21.3496C29.5032 21.5185 29.314 21.7077 29.091 21.9037C29.091 21.9037 29.091 21.9104 29.0842 21.9172C27.7126 23.1401 25.0708 24.6942 25.0708 24.6942C24.8073 24.7144 24.4694 24.6536 24.4154 24.3969C24.3884 24.282 24.4357 24.1671 24.4897 24.059C24.6654 23.7144 24.9221 23.4104 25.2465 23.1942C23.9762 22.7685 22.4762 23.1739 21.5911 24.1739C21.4087 24.3834 21.1654 24.6401 20.9019 24.559C20.5506 24.4509 20.6181 23.9374 20.76 23.5996C20.733 23.6671 20.0506 23.8766 19.9357 23.9374C19.6722 24.0861 19.4222 24.255 19.1655 24.4239C17.8344 25.2887 16.1858 25.6874 15.0439 26.8293C14.1115 27.7549 13.4493 28.9509 13.1993 30.2481C12.7872 32.363 13.4899 34.667 15.0169 36.1873C16.5439 37.7075 18.8479 38.4034 20.9627 37.9778C24.537 37.2616 26.6586 33.7549 27.8545 30.6062C28.3748 29.2346 28.7194 27.8157 28.7194 27.8157C28.4491 27.9644 28.2194 28.0657 28.0167 28.1333C28.0167 28.1333 28.0167 28.1265 28.0167 28.1198C27.8208 28.1874 27.6113 28.2279 27.4086 28.2347C27.2262 28.2347 27.1316 28.2009 27.1316 28.2009C26.9829 28.0995 27.0505 27.8698 27.1451 27.7211C27.5032 27.1536 28.0302 26.7144 28.4897 26.2279V26.2347Z" fill="white"/>
</svg>
