<svg width="120" height="120" viewBox="0 0 120 120" fill="none" xmlns="http://www.w3.org/2000/svg">
<path d="M108.891 30.27C108.891 30.27 108.891 30.24 108.881 30.22C108.111 30.55 107.301 30.77 106.471 30.87C105.741 30.93 105.351 30.82 105.351 30.82C104.721 30.47 104.921 29.52 105.261 28.88C106.531 26.5 108.501 24.59 110.221 22.52C111.931 20.44 113.461 18 113.531 15.31C113.571 13.57 113.001 11.9 112.481 10.27C112.331 9.81 112.211 9.34 112.111 8.88C111.821 7.57 111.661 6.27 111.411 5C108.671 11.39 103.171 16.33 96.121 17.35C95.071 17.5 93.691 17.36 93.401 16.35C93.271 15.9 93.421 15.41 93.601 14.98C94.191 13.55 95.161 12.27 96.371 11.3C91.171 9.98 85.271 12.03 82.021 16.3C81.341 17.19 80.461 18.3 79.371 18.04C77.941 17.7 78.071 15.64 78.531 14.25C78.431 14.54 75.761 15.57 75.341 15.84C74.321 16.5 73.381 17.27 72.411 18.01C67.351 21.87 60.851 23.95 56.601 28.84C53.131 32.82 50.811 37.81 50.181 43.05C49.141 51.64 52.641 60.65 59.191 66.29C65.751 71.93 75.181 74.04 83.511 71.73C97.601 67.82 105.081 53.17 108.951 40.22C110.641 34.57 111.611 28.81 111.611 28.81C110.581 29.5 109.671 29.96 108.881 30.28L108.891 30.27Z" fill="#FF4C3E"/>
<path d="M99.2309 33.3497C100.151 32.3897 101.001 31.2997 101.461 30.0697C101.461 30.0697 101.461 30.0497 101.471 30.0497C103.951 24.5197 102.351 20.1797 102.351 20.1797C101.981 20.6397 101.471 21.1497 100.881 21.6797C100.881 21.6797 100.881 21.6697 100.881 21.6597C100.881 21.6697 100.871 21.6797 100.861 21.6997C97.1609 25.0097 90.0309 29.1997 90.0309 29.1997C89.3209 29.2497 88.4009 29.0897 88.2509 28.3897C88.1809 28.0797 88.3109 27.7597 88.4509 27.4797C88.9209 26.5497 89.6209 25.7397 90.4809 25.1497C87.0609 24.0097 83.0009 25.0997 80.6109 27.7997C80.1109 28.3697 79.4709 29.0697 78.7509 28.8397C77.8109 28.5397 77.9909 27.1697 78.3709 26.2597C78.2909 26.4497 76.4509 27.0097 76.1509 27.1697C75.4309 27.5597 74.7609 28.0297 74.0809 28.4797C70.5009 30.8197 66.0409 31.8997 62.9509 34.9697C60.4409 37.4697 58.6509 40.6997 57.9609 44.1897C56.8409 49.8997 58.7509 56.1097 62.8709 60.2097C66.9909 64.3097 73.2109 66.1897 78.9109 65.0397C88.5509 63.1097 94.2809 53.6497 97.5009 45.1597C98.9109 41.4597 99.8409 37.6397 99.8409 37.6397C99.1209 38.0497 98.4809 38.3197 97.9409 38.4897C97.9409 38.4797 97.9409 38.4697 97.9409 38.4597C97.4109 38.6397 96.8509 38.7497 96.2909 38.7797C95.8009 38.7797 95.5409 38.6897 95.5409 38.6897C95.1409 38.4297 95.3209 37.7997 95.5709 37.3897C96.5409 35.8597 97.9509 34.6697 99.2009 33.3697L99.2309 33.3497Z" fill="#FFC0BC"/>
<path d="M87.1711 41.4702C87.6711 40.9402 88.1411 40.3402 88.3911 39.6702C88.3911 39.6702 88.3911 39.6702 88.3911 39.6602C89.7511 36.6202 88.8711 34.2402 88.8711 34.2402C88.6711 34.4902 88.3911 34.7702 88.0611 35.0602C88.0611 35.0602 88.0611 35.0702 88.0511 35.0802C86.0211 36.8902 82.1111 39.1902 82.1111 39.1902C81.7211 39.2202 81.2211 39.1302 81.1411 38.7502C81.1011 38.5802 81.1711 38.4102 81.2511 38.2502C81.5111 37.7402 81.8911 37.2902 82.3711 36.9702C80.4911 36.3402 78.2711 36.9402 76.9611 38.4202C76.6911 38.7302 76.3311 39.1102 75.9411 38.9902C75.4211 38.8302 75.5211 38.0702 75.7311 37.5702C75.6911 37.6702 74.6811 37.9802 74.5111 38.0702C74.1211 38.2902 73.7511 38.5402 73.3711 38.7902C71.4011 40.0702 68.9611 40.6602 67.2711 42.3502C65.8911 43.7202 64.9111 45.4902 64.5411 47.4102C63.9311 50.5402 64.9711 53.9502 67.2311 56.2002C69.4911 58.4502 72.9011 59.4802 76.0311 58.8502C81.3211 57.7902 84.4611 52.6002 86.2311 47.9402C87.0011 45.9102 87.5111 43.8102 87.5111 43.8102C87.1111 44.0302 86.7711 44.1802 86.4711 44.2802C86.4711 44.2802 86.4711 44.2702 86.4711 44.2602C86.1811 44.3602 85.8711 44.4202 85.5711 44.4302C85.3011 44.4302 85.1611 44.3802 85.1611 44.3802C84.9411 44.2302 85.0411 43.8902 85.1811 43.6702C85.7111 42.8302 86.4911 42.1802 87.1711 41.4602V41.4702Z" fill="white"/>
<g clip-path="url(#clip0_746_11051)">
<path d="M46 115C68.0914 115 86 97.0914 86 75C86 52.9086 68.0914 35 46 35C23.9086 35 6 52.9086 6 75C6 97.0914 23.9086 115 46 115Z" fill="#FF4C3E"/>
<path d="M45.9758 104.542C61.2101 104.542 73.5598 92.1922 73.5598 76.958C73.5598 61.7238 61.2101 49.374 45.9758 49.374C30.7416 49.374 18.3918 61.7238 18.3918 76.958C18.3918 92.1922 30.7416 104.542 45.9758 104.542Z" fill="#1F1F1F"/>
<path d="M34.9598 68.4303C35.8958 69.5023 37.2558 70.1983 38.6238 70.5743C39.9918 70.9503 41.5358 71.0383 42.8718 70.5183C44.2078 69.9983 45.1838 68.8543 45.3998 67.3983C45.5278 66.5103 45.5918 65.3423 44.7198 64.8223C44.1198 64.4623 43.4398 64.6783 42.9998 65.1823C42.5198 65.7343 42.2478 66.4863 42.1118 67.1983C41.9918 67.8543 41.9118 68.6383 42.2318 69.2543C42.7038 70.1743 43.9598 70.5183 44.9198 70.5103C45.9358 70.5023 46.9518 70.1343 47.7758 69.5583C48.5998 68.9823 49.3278 68.1503 49.6398 67.1583C49.8478 66.4943 49.8398 65.5423 48.9838 65.4063C48.3278 65.3023 47.7118 65.8143 47.3598 66.3183C46.8638 67.0303 46.8478 67.9103 47.2238 68.6783C47.9838 70.2303 49.6878 70.4943 51.1758 69.8863C52.6718 69.2703 54.0718 68.0143 54.6718 66.4863C54.8078 66.1503 54.8798 65.7983 54.8958 65.4383C54.9358 64.7583 53.8718 64.7583 53.8318 65.4383C53.7678 66.5663 52.8078 67.5983 51.9518 68.2303C51.1598 68.8223 49.9278 69.4783 48.9358 69.0143C47.9918 68.5663 47.6478 67.1663 48.5998 66.5503C48.6798 66.4943 48.6958 66.4943 48.7758 66.4703C48.8798 66.4303 48.8398 66.4943 48.8078 66.4623C48.8078 66.4623 48.6798 66.3743 48.6958 66.3743C48.6238 66.3743 48.7438 66.3263 48.6958 66.3903C48.6958 66.3903 48.6718 66.6703 48.6558 66.7263C48.4718 67.4703 47.9598 68.1023 47.3678 68.5583C46.7758 69.0143 46.0158 69.3583 45.2558 69.4463C44.8638 69.4863 44.4718 69.4623 44.0958 69.3583C43.7198 69.2543 43.2798 69.0143 43.1598 68.7583C43.0158 68.4463 43.0638 67.8543 43.1438 67.4543C43.2398 66.9503 43.4078 66.3983 43.7198 65.9823C43.8158 65.8543 43.9598 65.7423 44.0158 65.7183C44.0798 65.6943 44.0558 65.7023 44.0798 65.7183C44.1038 65.7343 44.2078 65.7663 44.2638 65.8303C44.4718 66.0703 44.3998 66.6143 44.3838 66.9103C44.3678 67.2063 44.3118 67.4943 44.2238 67.7743C43.9358 68.7023 43.2078 69.3343 42.2958 69.6223C40.0958 70.3103 37.2158 69.4303 35.7118 67.7103C35.2638 67.1983 34.5118 67.9503 34.9598 68.4623V68.4303Z" fill="#FF4C3E"/>
<path d="M55.4718 74.4781H54.4958C54.1838 73.8381 53.6318 73.4141 53.0078 73.4141C52.3838 73.4141 51.8398 73.8381 51.5198 74.4781H50.5278C50.2318 74.4781 49.9998 74.7181 49.9998 75.0061C49.9998 75.2941 50.2398 75.5341 50.5278 75.5341H51.2478C51.2478 75.5901 51.2318 75.6541 51.2318 75.7101C51.2318 76.9821 52.0238 78.0061 52.9998 78.0061C53.9758 78.0061 54.7678 76.9741 54.7678 75.7101C54.7678 75.6461 54.7598 75.5901 54.7518 75.5341H55.4638C55.7598 75.5341 55.9918 75.2941 55.9918 75.0061C55.9918 74.7181 55.7518 74.4781 55.4638 74.4781H55.4718Z" fill="white"/>
<path d="M41.6798 74.4781H40.7038C40.3918 73.8381 39.8398 73.4141 39.2158 73.4141C38.5918 73.4141 38.0478 73.8381 37.7278 74.4781H36.7358C36.4398 74.4781 36.2078 74.7181 36.2078 75.0061C36.2078 75.2941 36.4478 75.5341 36.7358 75.5341H37.4558C37.4558 75.5901 37.4398 75.6541 37.4398 75.7101C37.4398 76.9821 38.2318 78.0061 39.2078 78.0061C40.1838 78.0061 40.9758 76.9741 40.9758 75.7101C40.9758 75.6461 40.9678 75.5901 40.9598 75.5341H41.6718C41.9678 75.5341 42.1998 75.2941 42.1998 75.0061C42.1998 74.7181 41.9598 74.4781 41.6718 74.4781H41.6798Z" fill="white"/>
<path d="M45.7278 85.8541C43.7358 85.8541 42.3518 85.4221 42.3118 85.4061C41.9438 85.2861 41.7358 84.8861 41.8558 84.5181C41.9758 84.1501 42.3758 83.9421 42.7438 84.0621C43.0798 84.1661 50.9438 86.5901 55.5678 78.3741C55.7598 78.0301 56.1918 77.9101 56.5278 78.1021C56.8718 78.2941 56.9918 78.7261 56.7998 79.0621C53.5998 84.7421 48.8958 85.8461 45.7198 85.8461L45.7278 85.8541Z" fill="white"/>
<path d="M46.1038 79.4302C46.7886 79.4302 47.3438 78.875 47.3438 78.1902C47.3438 77.5054 46.7886 76.9502 46.1038 76.9502C45.4189 76.9502 44.8638 77.5054 44.8638 78.1902C44.8638 78.875 45.4189 79.4302 46.1038 79.4302Z" fill="#FF4C3E"/>
<path d="M46.2238 44.0625H46.2158C42.9949 44.0625 40.3838 46.6736 40.3838 49.8945V49.9025C40.3838 53.1234 42.9949 55.7345 46.2158 55.7345H46.2238C49.4447 55.7345 52.0558 53.1234 52.0558 49.9025V49.8945C52.0558 46.6736 49.4447 44.0625 46.2238 44.0625Z" fill="#1F1F1F"/>
<path d="M71.8079 76.7024C71.7039 76.4304 71.3919 76.2944 71.1199 76.3984L69.9599 76.8464C70.1359 73.9824 69.8079 71.9904 69.7759 71.8144C69.7279 71.5264 69.4559 71.3344 69.1599 71.3824C68.8719 71.4304 68.6799 71.7104 68.7279 71.9984C68.7279 72.0384 69.0879 74.1984 68.8399 77.2784L66.0159 78.3664C65.7439 78.4704 65.6079 78.7824 65.7119 79.0544C65.7919 79.2624 65.9919 79.3984 66.2079 79.3984C66.2719 79.3984 66.3359 79.3904 66.3999 79.3664L68.7199 78.4704C68.5919 79.5184 68.3839 80.6384 68.0799 81.7984L65.3519 82.8464C65.0799 82.9504 64.9439 83.2624 65.0479 83.5344C65.1279 83.7424 65.3279 83.8784 65.5439 83.8784C65.6079 83.8784 65.6719 83.8704 65.7359 83.8464L67.7039 83.0864C67.1359 84.8224 66.3359 86.6064 65.1839 88.3264C65.0239 88.5664 65.0879 88.9024 65.3279 89.0624C65.4159 89.1264 65.5199 89.1504 65.6239 89.1504C65.7919 89.1504 65.9599 89.0704 66.0639 88.9104C67.4639 86.8144 68.3759 84.6464 68.9759 82.5904L70.8319 81.8784C71.1039 81.7744 71.2399 81.4624 71.1359 81.1904C71.0319 80.9184 70.7199 80.7824 70.4479 80.8864L69.3039 81.3264C69.5759 80.1664 69.7519 79.0544 69.8559 78.0304L71.4959 77.3984C71.7679 77.2944 71.9039 76.9824 71.7999 76.7104L71.8079 76.7024Z" fill="#FF4C3E"/>
</g>
<defs>
<clipPath id="clip0_746_11051">
<rect width="80" height="80" fill="white" transform="translate(6 35)"/>
</clipPath>
</defs>
</svg>
